<svg width="890" height="1300" viewBox="0 0 890 1300" fill="none" xmlns="http://www.w3.org/2000/svg">
<g filter="url(#filter0_f_2823_24158)">
<path d="M-110.82 963.854C-88.4565 920.28 -88.6972 880.203 -77.5088 880.203C69.8623 880.203 111.42 781.287 111.42 649.968C111.42 518.649 28.382 429.315 -118.989 429.315C-130.178 429.315 -133.036 355.423 -143.863 356.615C-80.0944 304.691 -48.4856 177.659 176.71 204.585C374.775 204.585 677.393 483.316 689.297 676.51C707.565 972.988 350.663 1098.5 152.599 1098.5C59.4094 1098.5 -71.2778 1121.74 -110.82 963.854Z" fill="#6219FD" fill-opacity="0.4"/>
</g>
<g filter="url(#filter1_f_2823_24158)">
<path d="M-87.8455 978.216C-65.482 934.642 -73.1261 847.17 -61.9376 847.17C85.4334 847.17 191.816 766.719 191.816 656.116C178.272 565.828 36.676 452.241 -110.695 452.241C-121.884 452.241 -87.8455 457.858 -87.8454 324.466C-24.0768 272.542 5.94781 324.466 99.1374 324.466C297.202 324.466 573.283 497.683 573.283 674.174C573.283 850.664 277.039 1020.87 78.9742 1020.87C-14.2153 1020.87 -24.0769 1030.14 -87.8455 978.216Z" fill="url(#paint0_linear_2823_24158)" fill-opacity="0.5"/>
</g>
<defs>
<filter id="filter0_f_2823_24158" x="-343.863" y="0.882446" width="1233.84" height="1298.82" filterUnits="userSpaceOnUse" color-interpolation-filters="sRGB">
<feFlood flood-opacity="0" result="BackgroundImageFix"/>
<feBlend mode="normal" in="SourceGraphic" in2="BackgroundImageFix" result="shape"/>
<feGaussianBlur stdDeviation="100" result="effect1_foregroundBlur_2823_24158"/>
</filter>
<filter id="filter1_f_2823_24158" x="-212.953" y="201.389" width="886.235" height="920.124" filterUnits="userSpaceOnUse" color-interpolation-filters="sRGB">
<feFlood flood-opacity="0" result="BackgroundImageFix"/>
<feBlend mode="normal" in="SourceGraphic" in2="BackgroundImageFix" result="shape"/>
<feGaussianBlur stdDeviation="50" result="effect1_foregroundBlur_2823_24158"/>
</filter>
<linearGradient id="paint0_linear_2823_24158" x1="37.0318" y1="646.6" x2="587.986" y2="619.297" gradientUnits="userSpaceOnUse">
<stop stop-color="#8B19FD" stop-opacity="0.44"/>
<stop offset="0.389309" stop-color="#B919FD"/>
<stop offset="1" stop-color="#B919FD" stop-opacity="0"/>
</linearGradient>
</defs>
</svg>
